The life stories of the six men who raised the flag at The Battle of Iwo Jima, a turning point in WWII.
 
http://www.imdb.com/title/tt0418689/

Subtitles (srt) : Dutch, English.

Covers included.

Het is februari 1945. Terwijl de overwinning in Europa eindelijk in zicht komt, woedt de oorlog in de Stille Oceaan in alle hevigheid voort. Eén van de belangrijkste en bloedigste veldslagen speelde zich af op het eiland Iwo Jima. Vijf mariniers en een veldarts van de marine planten de Amerikaanse vlag op de Suribachiberg. De foto die daarvan wordt gemaakt, wordt een symbool van de overwinning. De Amerikaanse soldaten worden op slag beroemd en worden ingezet om geld bij het volk op te halen om de verdere oorlog te kunnen betalen.
 
http://www.moviemeter.nl/film/31631

Ondertitels (srt) : Engels, Nederlands.

Covers bijgevoegd.

General
Complete name                    : Flags of our Fathers-AC3-XviD-DVDRip[Eng]2006 2Lions-TeamFlags of our Fathers-AC3-XviD-DVDRip[Eng]2006.avi
Format                           : AVI
Format/Info                      : Audio Video Interleave
File size                        : 1.37 GiB
Duration                         : 2h 11mn
Overall bit rate                 : 1 487 Kbps
Writing application              : VirtualDubMod 1.5.4.1 (build 2178/release)
Writing library                  : VirtualDubMod build 2178/release

Video
ID                               : 0
Format                           : MPEG-4 Visual
Format profile                   : Advanced Simple@L5
Format settings, BVOP            : Yes
Format settings, QPel            : No
Format settings, GMC             : No warppoints
Format settings, Matrix          : Default (MPEG)
Muxing mode                      : Packed bitstream
Codec ID                         : XVID
Codec ID/Hint                    : XviD
Duration                         : 2h 11mn
Bit rate                         : 1 029 Kbps
Width                            : 640 pixels
Height                           : 272 pixels
Display aspect ratio             : 2.35:1
Frame rate                       : 23.976 fps
Resolution                       : 8 bits
Colorimetry                      : 4:2:0
Scan type                        : Progressive
Bits/(Pixel*Frame)               : 0.247
Stream size                      : 971 MiB (69%)
Writing library                  : XviD 1.1.2 (UTC 2006-11-01)

Audio
ID                               : 1
Format                           : AC-3
Format/Info                      : Audio Coding 3
Format_Settings_ModeExtension    : CM (complete main)
Codec ID                         : 2000
Duration                         : 2h 11mn
Bit rate mode                    : Constant
Bit rate                         : 448 Kbps
Channel(s)                       : 6 channels
Channel positions                : Front: L C R, Side: L R, LFE
Sampling rate                    : 48.0 KHz
Stream size                      : 422 MiB (30%)
Alignment                        : Split accross interleaves
Interleave, duration             : 42 ms (1.00 video frame)
Interleave, preload duration     : 500 ms

Brought to you by 
2Lions Team

meer zien??
Kom dan eens kijken op ons forum 
                    
http://www.2lions.ons-forum.nl

2Lions the site to be for all your Dutch MOVIES and more

******************************************

DON T HIT AND RUN Niet gelijk afhaken als de FILM binnen is blijf seeden. 

Don`t quit after you finished the download, but keep seeding

There are fake torrents from uploaders who use our team name.
Those are not ours, or members from our team.
We 2Lions-Team are not responsible for the fake posts on our name

Wij 2Lions-Team zijn niet verantwoordelijk voor die zieke FAKE posten die op onze naam worden gedaan

Please check our site !!!

to the fakers , get a life !!!